<svg width="21" height="14" viewBox="0 0 21 14" fill="none" xmlns="http://www.w3.org/2000/svg">
<path fill-rule="evenodd" clip-rule="evenodd" d="M3.00363 6.80784C2.9077 6.9574 2.82804 7.09067 2.76412 7.20261C2.82804 7.31456 2.9077 7.44783 3.00363 7.59739C3.31521 8.08318 3.7924 8.73151 4.45062 9.37767C5.76259 10.6656 7.76128 11.919 10.6197 11.919C13.4781 11.919 15.4768 10.6656 16.7888 9.37767C17.447 8.73151 17.9242 8.08318 18.2358 7.59739C18.3317 7.44783 18.4114 7.31456 18.4753 7.20261C18.4114 7.09067 18.3317 6.9574 18.2358 6.80784C17.9242 6.32205 17.447 5.67372 16.7888 5.02757C15.4768 3.73965 13.4781 2.48627 10.6197 2.48627C7.76128 2.48627 5.76259 3.73965 4.45062 5.02757C3.7924 5.67372 3.31521 6.32205 3.00363 6.80784ZM20.5035 7.57502C20.5037 7.57459 20.5039 7.57419 19.588 7.20262L20.5039 7.57419C20.6113 7.33691 20.6113 7.06832 20.5039 6.83104L19.588 7.20262C20.5039 6.83104 20.5037 6.83064 20.5035 6.83021L20.5031 6.82925L20.502 6.82693L20.4992 6.82074L20.4906 6.80227C20.4835 6.78729 20.4738 6.76703 20.4615 6.74183C20.4368 6.69146 20.4013 6.62129 20.3548 6.53415C20.2619 6.36002 20.1244 6.11727 19.9393 5.82876C19.5703 5.25337 19.0065 4.4868 18.2234 3.71805C16.6527 2.17615 14.1672 0.599731 10.6197 0.599731C7.07217 0.599731 4.58671 2.17615 3.01601 3.71805C2.2329 4.4868 1.66912 5.25337 1.30007 5.82876C1.11503 6.11727 0.977463 6.36002 0.884544 6.53415C0.838048 6.62129 0.802618 6.69146 0.777911 6.74183C0.765555 6.76703 0.75587 6.78729 0.748815 6.80227L0.740194 6.82074L0.73735 6.82693L0.736292 6.82925L0.735855 6.83021C0.735661 6.83064 0.735477 6.83104 1.65135 7.2026L0.735477 6.83104C0.62805 7.06832 0.62805 7.33691 0.735477 7.57419L1.65135 7.20263C0.735477 7.57419 0.735661 7.57459 0.735855 7.57502L0.736292 7.57598L0.73735 7.5783L0.740194 7.58449L0.748815 7.60296C0.75587 7.61794 0.765555 7.6382 0.777911 7.6634C0.802618 7.71377 0.838048 7.78394 0.884544 7.87108C0.977463 8.04522 1.11503 8.28797 1.30007 8.57647C1.66912 9.15186 2.2329 9.91843 3.01601 10.6872C4.58671 12.2291 7.07217 13.8055 10.6197 13.8055C14.1672 13.8055 16.6527 12.2291 18.2234 10.6872C19.0065 9.91843 19.5703 9.15186 19.9393 8.57647C20.1244 8.28797 20.2619 8.04522 20.3548 7.87108C20.4013 7.78394 20.4368 7.71377 20.4615 7.6634C20.4738 7.6382 20.4835 7.61794 20.4906 7.60296L20.4992 7.58449L20.502 7.5783L20.5031 7.57598L20.5035 7.57502ZM10.6197 9.08915C9.51901 9.08915 8.62674 8.24452 8.62674 7.20262C8.62674 6.16071 9.51901 5.31608 10.6197 5.31608C11.7204 5.31608 12.6127 6.16071 12.6127 7.20262C12.6127 8.24452 11.7204 9.08915 10.6197 9.08915ZM6.63378 7.20262C6.63378 5.1188 8.41833 3.42954 10.6197 3.42954C12.8211 3.42954 14.6056 5.1188 14.6056 7.20262C14.6056 9.28643 12.8211 10.9757 10.6197 10.9757C8.41833 10.9757 6.63378 9.28643 6.63378 7.20262Z" fill="black"/>
</svg>
